<svg xmlns="http://www.w3.org/2000/svg" viewBox="0 0 800 1131" font-family="Kaiti SC, STKaiti, KaiTi, serif">
  <!-- 示例信纸 · 第 1 页（替换成你的手写扫描件即可） -->
  <defs>
    <linearGradient id="paperGlow" x1="0" y1="0" x2="0" y2="1">
      <stop offset="0" stop-color="#ffffff" stop-opacity=".5"/>
      <stop offset=".5" stop-color="#ffffff" stop-opacity="0"/>
      <stop offset="1" stop-color="#d8c9a8" stop-opacity=".25"/>
    </linearGradient>
  </defs>

  <rect width="800" height="1131" fill="#fdf8ec"/>
  <rect width="800" height="1131" fill="url(#paperGlow)"/>

  <!-- 横线 -->
  <g stroke="#d8c9a8" stroke-width="1.6" stroke-dasharray="1 7" stroke-linecap="round">
    <line x1="72" y1="300" x2="728" y2="300"/>
    <line x1="72" y1="364" x2="728" y2="364"/>
    <line x1="72" y1="428" x2="728" y2="428"/>
    <line x1="72" y1="492" x2="728" y2="492"/>
    <line x1="72" y1="556" x2="728" y2="556"/>
    <line x1="72" y1="620" x2="728" y2="620"/>
    <line x1="72" y1="684" x2="728" y2="684"/>
    <line x1="72" y1="748" x2="728" y2="748"/>
    <line x1="72" y1="812" x2="728" y2="812"/>
    <line x1="72" y1="876" x2="728" y2="876"/>
    <line x1="72" y1="940" x2="728" y2="940"/>
    <line x1="72" y1="1004" x2="728" y2="1004"/>
    <line x1="72" y1="1068" x2="728" y2="1068"/>
  </g>

  <!-- 日期 -->
  <text x="728" y="122" text-anchor="end" font-size="24" fill="#8a6f52" letter-spacing="3">二〇二六年 八月十六</text>

  <!-- 正文 -->
  <g font-size="30" fill="#6b4f3a" letter-spacing="2">
    <text x="76" y="292">亲爱的你：</text>
    <text x="76" y="356">见字如面。</text>
    <text x="76" y="420">现在你看到的，只是一张「示例信纸」——</text>
    <text x="76" y="484">等他把真正手写的信放进这个信箱，</text>
    <text x="76" y="548">这里就会变成熟悉的笔迹。</text>
    <text x="76" y="612" font-size="24" fill="#a08760">（把 letters/demo 里的图片换成扫描件，</text>
    <text x="76" y="672" font-size="24" fill="#a08760">再去 data/letters.js 里登记一下就好啦。）</text>
  </g>

  <!-- 小涂鸦 -->
  <g stroke="#c4655a" stroke-width="3" fill="none" stroke-linecap="round" stroke-linejoin="round">
    <path d="M96 950 c -14 -14 -38 -9 -38 10 c 0 16 21 28 38 42 c 17 -14 38 -26 38 -42 c 0 -19 -24 -24 -38 -10 z"/>
    <path d="M156 938 l 4 8 9 1.5 -6.5 6 1.5 9 -8 -4.5 -8 4.5 1.5 -9 -6.5 -6 9 -1.5 z" stroke-width="2"/>
  </g>

  <text x="728" y="1108" text-anchor="end" font-size="20" fill="#b0a184">— 第 1 页 · 共 2 页 —</text>
</svg>
